<?xml version="1.0" standalone="no"?>
<!DOCTYPE svg PUBLIC "-//W3C//DTD SVG 20010904//EN"
 "http://www.w3.org/TR/2001/REC-SVG-20010904/DTD/svg10.dtd">
<svg version="1.0" xmlns="http://www.w3.org/2000/svg"
 width="700.000000pt" height="700.000000pt" viewBox="0 0 700.000000 700.000000"
 preserveAspectRatio="xMidYMid meet">
<metadata>
Created by potrace 1.11, written by Peter Selinger 2001-2013
</metadata>
<g transform="translate(0.000000,700.000000) scale(0.100000,-0.100000)"
fill="#000000" stroke="none">
<path d="M1875 5554 c-192 -19 -255 -28 -354 -50 -678 -151 -1131 -611 -1276
-1298 -45 -211 -58 -376 -52 -656 7 -337 42 -558 124 -794 85 -244 209 -441
397 -630 242 -243 502 -393 881 -508 404 -122 829 -163 1823 -175 l532 -6 0
331 c0 189 4 332 9 332 5 0 51 -29 102 -64 249 -169 525 -274 849 -321 329
-47 760 -24 1088 59 300 77 506 167 735 324 l77 53 0 1473 0 1473 -127 86
c-194 130 -374 208 -658 282 -346 91 -746 116 -1105 69 -514 -67 -896 -273
-1166 -630 -48 -62 -88 -114 -90 -114 -2 0 -36 44 -77 98 -271 357 -650 567
-1162 643 -124 18 -459 32 -550 23z m472 -389 c353 -46 627 -168 828 -370 203
-203 307 -458 337 -827 36 -445 -80 -818 -340 -1098 -108 -117 -112 -114 177
-118 l231 -2 0 -465 0 -465 -267 0 c-445 0 -940 27 -1201 65 -559 83 -951 276
-1221 601 -167 201 -259 429 -307 761 -22 147 -26 562 -6 698 56 395 166 642
381 856 206 205 469 324 811 368 114 15 450 12 577 -4z m3366 -14 c248 -44
473 -115 632 -199 l90 -48 3 -487 2 -487 -464 0 -464 0 -4 193 c-4 209 -11
243 -66 301 -45 47 -97 66 -188 66 -137 0 -201 -35 -246 -134 l-23 -51 0 -670
c0 -738 0 -732 61 -804 46 -53 108 -76 205 -76 65 0 85 5 135 30 51 27 63 38
89 89 l30 59 3 209 3 208 465 0 464 0 0 -500 0 -500 -42 -27 c-89 -56 -305
-139 -480 -184 -436 -111 -970 -97 -1324 36 -461 174 -709 502 -801 1060 -25
155 -26 611 0 769 57 359 170 603 371 802 200 198 455 313 801 359 159 22 597
14 748 -14z"/>
<path d="M1903 4465 c-58 -29 -97 -79 -113 -145 -7 -31 -10 -254 -8 -720 l3
-676 26 -49 c48 -95 159 -139 292 -116 80 14 133 51 166 116 l26 49 0 701 0
700 -31 55 c-25 43 -42 61 -84 83 -45 23 -64 27 -139 27 -73 0 -95 -4 -138
-25z"/>
</g>
</svg>
